<mxfile host="app.diagrams.net" modified="2023-09-11T08:49:53.112Z" agent="Mozilla/5.0 (Windows NT 10.0; Win64; x64) AppleWebKit/537.36 (KHTML, like Gecko) Chrome/116.0.0.0 Safari/537.36" etag="vhNZKZIlyOHMHLnFjaz5" version="21.7.2" type="github" pages="2">
  <diagram name="Page-1" id="xHRpkcf7Uff5HgZ3ALfG">
    <mxGraphModel dx="1221" dy="622" grid="1" gridSize="10" guides="1" tooltips="1" connect="1" arrows="1" fold="1" page="1" pageScale="1" pageWidth="850" pageHeight="1100" math="0" shadow="0">
      <root>
        <mxCell id="0" />
        <mxCell id="1" parent="0" />
        <mxCell id="UpgFTflyBAgRF1FKhpor-101" value="" style="edgeStyle=orthogonalEdgeStyle;rounded=1;orthogonalLoop=1;jettySize=auto;html=1;" parent="1" source="UpgFTflyBAgRF1FKhpor-102" target="UpgFTflyBAgRF1FKhpor-103" edge="1">
          <mxGeometry relative="1" as="geometry" />
        </mxCell>
        <mxCell id="UpgFTflyBAgRF1FKhpor-102" value="&lt;div style=&quot;background-color: rgb(255, 255, 255); font-family: Consolas, &amp;quot;Courier New&amp;quot;, monospace; font-size: 14px; line-height: 19px;&quot;&gt;ar_game_meteoroid_handle(&lt;span style=&quot;color: #267f99;&quot;&gt;ak_msg_t&lt;/span&gt;&lt;span style=&quot;color: #0000ff;&quot;&gt;*&lt;/span&gt; &lt;span style=&quot;color: #001080;&quot;&gt;msg&lt;/span&gt;)&lt;/div&gt;" style="rounded=1;whiteSpace=wrap;html=1;fontSize=12;glass=0;strokeWidth=1;shadow=0;" parent="1" vertex="1">
          <mxGeometry x="200" y="350" width="310" height="70" as="geometry" />
        </mxCell>
        <mxCell id="UpgFTflyBAgRF1FKhpor-103" value="" style="rounded=1;whiteSpace=wrap;html=1;fontSize=12;glass=0;strokeWidth=1;shadow=0;" parent="1" vertex="1">
          <mxGeometry x="141" y="445" width="428" height="590" as="geometry" />
        </mxCell>
        <mxCell id="UpgFTflyBAgRF1FKhpor-104" value="" style="edgeStyle=orthogonalEdgeStyle;rounded=1;orthogonalLoop=1;jettySize=auto;html=1;exitX=0;exitY=0.225;exitDx=0;exitDy=0;exitPerimeter=0;entryX=-0.002;entryY=0.118;entryDx=0;entryDy=0;entryPerimeter=0;" parent="1" source="UpgFTflyBAgRF1FKhpor-105" target="UpgFTflyBAgRF1FKhpor-108" edge="1">
          <mxGeometry relative="1" as="geometry">
            <mxPoint x="199" y="700" as="targetPoint" />
            <Array as="points">
              <mxPoint x="179" y="550" />
              <mxPoint x="179" y="655" />
              <mxPoint x="208" y="655" />
            </Array>
          </mxGeometry>
        </mxCell>
        <mxCell id="UpgFTflyBAgRF1FKhpor-105" value="&lt;div style=&quot;background-color: rgb(255, 255, 255); font-family: Consolas, &amp;quot;Courier New&amp;quot;, monospace; font-size: 14px; line-height: 19px;&quot;&gt;&lt;div style=&quot;line-height: 19px;&quot;&gt;&lt;div style=&quot;line-height: 19px;&quot;&gt;&lt;div style=&quot;line-height: 19px;&quot;&gt;&lt;div style=&quot;line-height: 19px;&quot;&gt;AR_GAME_METEOROID_SETUP&lt;/div&gt;&lt;/div&gt;&lt;/div&gt;&lt;/div&gt;&lt;/div&gt;" style="swimlane;fontStyle=0;childLayout=stackLayout;horizontal=1;startSize=30;horizontalStack=0;resizeParent=1;resizeParentMax=0;resizeLast=0;collapsible=1;marginBottom=0;whiteSpace=wrap;html=1;rounded=1;" parent="1" vertex="1">
          <mxGeometry x="209" y="530" width="310" height="90" as="geometry" />
        </mxCell>
        <mxCell id="UpgFTflyBAgRF1FKhpor-106" value="&lt;div style=&quot;background-color: rgb(255, 255, 255); font-family: Consolas, &amp;quot;Courier New&amp;quot;, monospace; font-size: 14px; line-height: 19px;&quot;&gt;&lt;div style=&quot;line-height: 19px;&quot;&gt;&lt;div style=&quot;line-height: 19px;&quot;&gt;APP_DBG_SIG(&lt;span style=&quot;color: #a31515;&quot;&gt;&quot;&lt;/span&gt;AR_GAME_METEOROID_SETUP&lt;span style=&quot;color: rgb(238, 0, 0);&quot;&gt;\n&lt;/span&gt;&lt;span style=&quot;color: rgb(163, 21, 21);&quot;&gt;&quot;&lt;/span&gt;);&lt;br&gt;&lt;/div&gt;&lt;/div&gt;&lt;/div&gt;" style="text;strokeColor=none;fillColor=none;align=left;verticalAlign=middle;spacingLeft=4;spacingRight=4;overflow=hidden;points=[[0,0.5],[1,0.5]];portConstraint=eastwest;rotatable=0;whiteSpace=wrap;html=1;rounded=1;" parent="UpgFTflyBAgRF1FKhpor-105" vertex="1">
          <mxGeometry y="30" width="310" height="30" as="geometry" />
        </mxCell>
        <mxCell id="UpgFTflyBAgRF1FKhpor-107" value="&lt;div style=&quot;background-color: rgb(255, 255, 255); font-family: Consolas, &amp;quot;Courier New&amp;quot;, monospace; font-size: 14px; line-height: 19px;&quot;&gt;&lt;div style=&quot;line-height: 19px;&quot;&gt;&lt;div style=&quot;line-height: 19px;&quot;&gt;&lt;div style=&quot;line-height: 19px;&quot;&gt;&lt;div style=&quot;line-height: 19px;&quot;&gt;&lt;div style=&quot;line-height: 19px;&quot;&gt;AR_GAME_METEOROID_SETUP();&lt;/div&gt;&lt;/div&gt;&lt;/div&gt;&lt;/div&gt;&lt;/div&gt;&lt;/div&gt;" style="text;strokeColor=none;fillColor=none;align=left;verticalAlign=middle;spacingLeft=4;spacingRight=4;overflow=hidden;points=[[0,0.5],[1,0.5]];portConstraint=eastwest;rotatable=0;whiteSpace=wrap;html=1;rounded=1;" parent="UpgFTflyBAgRF1FKhpor-105" vertex="1">
          <mxGeometry y="60" width="310" height="30" as="geometry" />
        </mxCell>
        <mxCell id="UpgFTflyBAgRF1FKhpor-108" value="&lt;div style=&quot;background-color: rgb(255, 255, 255); font-family: Consolas, &amp;quot;Courier New&amp;quot;, monospace; font-size: 14px; line-height: 19px;&quot;&gt;&lt;div style=&quot;line-height: 19px;&quot;&gt;&lt;div style=&quot;line-height: 19px;&quot;&gt;&lt;div style=&quot;line-height: 19px;&quot;&gt;&lt;div style=&quot;line-height: 19px;&quot;&gt;AR_GAME_METEOROID_RUN&lt;/div&gt;&lt;/div&gt;&lt;/div&gt;&lt;/div&gt;&lt;/div&gt;" style="swimlane;fontStyle=0;childLayout=stackLayout;horizontal=1;startSize=30;horizontalStack=0;resizeParent=1;resizeParentMax=0;resizeLast=0;collapsible=1;marginBottom=0;whiteSpace=wrap;html=1;rounded=1;" parent="1" vertex="1">
          <mxGeometry x="209" y="645" width="310" height="90" as="geometry" />
        </mxCell>
        <mxCell id="UpgFTflyBAgRF1FKhpor-109" value="&lt;div style=&quot;background-color: rgb(255, 255, 255); font-family: Consolas, &amp;quot;Courier New&amp;quot;, monospace; font-size: 14px; line-height: 19px;&quot;&gt;&lt;div style=&quot;line-height: 19px;&quot;&gt;&lt;div style=&quot;line-height: 19px;&quot;&gt;&lt;div style=&quot;line-height: 19px;&quot;&gt;APP_DBG_SIG(&quot;AR_GAME_METEOROID_RUN&lt;span style=&quot;border-color: var(--border-color); color: rgb(238, 0, 0);&quot;&gt;\n&lt;/span&gt;&lt;span style=&quot;border-color: var(--border-color); color: rgb(163, 21, 21);&quot;&gt;&quot;&lt;/span&gt;);&lt;br&gt;&lt;/div&gt;&lt;/div&gt;&lt;/div&gt;&lt;/div&gt;" style="text;strokeColor=none;fillColor=none;align=left;verticalAlign=middle;spacingLeft=4;spacingRight=4;overflow=hidden;points=[[0,0.5],[1,0.5]];portConstraint=eastwest;rotatable=0;whiteSpace=wrap;html=1;rounded=1;" parent="UpgFTflyBAgRF1FKhpor-108" vertex="1">
          <mxGeometry y="30" width="310" height="30" as="geometry" />
        </mxCell>
        <mxCell id="UpgFTflyBAgRF1FKhpor-110" value="&lt;div style=&quot;background-color: rgb(255, 255, 255); font-family: Consolas, &amp;quot;Courier New&amp;quot;, monospace; font-size: 14px; line-height: 19px;&quot;&gt;&lt;div style=&quot;line-height: 19px;&quot;&gt;&lt;div style=&quot;line-height: 19px;&quot;&gt;&lt;div style=&quot;line-height: 19px;&quot;&gt;&lt;div style=&quot;line-height: 19px;&quot;&gt;&lt;div style=&quot;line-height: 19px;&quot;&gt;&lt;div style=&quot;line-height: 19px;&quot;&gt;&lt;div style=&quot;line-height: 19px;&quot;&gt;AR_GAME_METEOROID_RUN();&lt;/div&gt;&lt;/div&gt;&lt;/div&gt;&lt;/div&gt;&lt;/div&gt;&lt;/div&gt;&lt;/div&gt;&lt;/div&gt;" style="text;strokeColor=none;fillColor=none;align=left;verticalAlign=middle;spacingLeft=4;spacingRight=4;overflow=hidden;points=[[0,0.5],[1,0.5]];portConstraint=eastwest;rotatable=0;whiteSpace=wrap;html=1;rounded=1;" parent="UpgFTflyBAgRF1FKhpor-108" vertex="1">
          <mxGeometry y="60" width="310" height="30" as="geometry" />
        </mxCell>
        <mxCell id="UpgFTflyBAgRF1FKhpor-111" value="&lt;div style=&quot;background-color: rgb(255, 255, 255); font-family: Consolas, &amp;quot;Courier New&amp;quot;, monospace; font-size: 14px; line-height: 19px;&quot;&gt;&lt;div style=&quot;line-height: 19px;&quot;&gt;&lt;div style=&quot;line-height: 19px;&quot;&gt;&lt;div style=&quot;line-height: 19px;&quot;&gt;&lt;div style=&quot;line-height: 19px;&quot;&gt;&lt;div style=&quot;line-height: 19px;&quot;&gt;&lt;div style=&quot;line-height: 19px;&quot;&gt;AR_GAME_METEOROID_DETONATOR&lt;/div&gt;&lt;/div&gt;&lt;/div&gt;&lt;/div&gt;&lt;/div&gt;&lt;/div&gt;&lt;/div&gt;" style="swimlane;fontStyle=0;childLayout=stackLayout;horizontal=1;startSize=30;horizontalStack=0;resizeParent=1;resizeParentMax=0;resizeLast=0;collapsible=1;marginBottom=0;whiteSpace=wrap;html=1;rounded=1;" parent="1" vertex="1">
          <mxGeometry x="209" y="755" width="310" height="90" as="geometry" />
        </mxCell>
        <mxCell id="UpgFTflyBAgRF1FKhpor-112" value="&lt;div style=&quot;background-color: rgb(255, 255, 255); font-family: Consolas, &amp;quot;Courier New&amp;quot;, monospace; font-size: 14px; line-height: 19px;&quot;&gt;&lt;div style=&quot;line-height: 19px;&quot;&gt;&lt;div style=&quot;line-height: 19px;&quot;&gt;&lt;div style=&quot;line-height: 19px;&quot;&gt;APP_DBG_SIG(&lt;span style=&quot;color: #a31515;&quot;&gt;&quot;&lt;/span&gt;AR_GAME_METEOROID_DETONATOR&lt;span style=&quot;color: rgb(238, 0, 0);&quot;&gt;\n&lt;/span&gt;&lt;span style=&quot;color: rgb(163, 21, 21);&quot;&gt;&quot;&lt;/span&gt;);&lt;br&gt;&lt;/div&gt;&lt;/div&gt;&lt;/div&gt;&lt;/div&gt;" style="text;strokeColor=none;fillColor=none;align=left;verticalAlign=middle;spacingLeft=4;spacingRight=4;overflow=hidden;points=[[0,0.5],[1,0.5]];portConstraint=eastwest;rotatable=0;whiteSpace=wrap;html=1;rounded=1;" parent="UpgFTflyBAgRF1FKhpor-111" vertex="1">
          <mxGeometry y="30" width="310" height="30" as="geometry" />
        </mxCell>
        <mxCell id="UpgFTflyBAgRF1FKhpor-113" value="&lt;div style=&quot;background-color: rgb(255, 255, 255); font-family: Consolas, &amp;quot;Courier New&amp;quot;, monospace; font-size: 14px; line-height: 19px;&quot;&gt;&lt;div style=&quot;line-height: 19px;&quot;&gt;&lt;div style=&quot;line-height: 19px;&quot;&gt;&lt;div style=&quot;line-height: 19px;&quot;&gt;&lt;div style=&quot;line-height: 19px;&quot;&gt;&lt;div style=&quot;line-height: 19px;&quot;&gt;AR_GAME_METEOROID_DETONATOR();&lt;/div&gt;&lt;/div&gt;&lt;/div&gt;&lt;/div&gt;&lt;/div&gt;&lt;/div&gt;" style="text;strokeColor=none;fillColor=none;align=left;verticalAlign=middle;spacingLeft=4;spacingRight=4;overflow=hidden;points=[[0,0.5],[1,0.5]];portConstraint=eastwest;rotatable=0;whiteSpace=wrap;html=1;rounded=1;" parent="UpgFTflyBAgRF1FKhpor-111" vertex="1">
          <mxGeometry y="60" width="310" height="30" as="geometry" />
        </mxCell>
        <mxCell id="UpgFTflyBAgRF1FKhpor-114" value="&lt;div style=&quot;background-color: rgb(255, 255, 255); font-family: Consolas, &amp;quot;Courier New&amp;quot;, monospace; font-size: 14px; line-height: 19px;&quot;&gt;&lt;div style=&quot;line-height: 19px;&quot;&gt;&lt;div style=&quot;line-height: 19px;&quot;&gt;&lt;div style=&quot;line-height: 19px;&quot;&gt;&lt;div style=&quot;line-height: 19px;&quot;&gt;&lt;div style=&quot;line-height: 19px;&quot;&gt;AR_GAME_METEOROID_RESET&lt;/div&gt;&lt;/div&gt;&lt;/div&gt;&lt;/div&gt;&lt;/div&gt;&lt;/div&gt;" style="swimlane;fontStyle=0;childLayout=stackLayout;horizontal=1;startSize=30;horizontalStack=0;resizeParent=1;resizeParentMax=0;resizeLast=0;collapsible=1;marginBottom=0;whiteSpace=wrap;html=1;rounded=1;" parent="1" vertex="1">
          <mxGeometry x="207.62" y="865" width="310" height="90" as="geometry" />
        </mxCell>
        <mxCell id="UpgFTflyBAgRF1FKhpor-115" value="&lt;div style=&quot;background-color: rgb(255, 255, 255); font-family: Consolas, &amp;quot;Courier New&amp;quot;, monospace; font-size: 14px; line-height: 19px;&quot;&gt;&lt;div style=&quot;line-height: 19px;&quot;&gt;&lt;div style=&quot;line-height: 19px;&quot;&gt;APP_DBG_SIG(&lt;span style=&quot;color: #a31515;&quot;&gt;&quot;&lt;/span&gt;AR_GAME_METEOROID_RESET&lt;span style=&quot;color: rgb(238, 0, 0);&quot;&gt;\n&lt;/span&gt;&lt;span style=&quot;color: rgb(163, 21, 21);&quot;&gt;&quot;&lt;/span&gt;);&lt;br&gt;&lt;/div&gt;&lt;/div&gt;&lt;/div&gt;" style="text;strokeColor=none;fillColor=none;align=left;verticalAlign=middle;spacingLeft=4;spacingRight=4;overflow=hidden;points=[[0,0.5],[1,0.5]];portConstraint=eastwest;rotatable=0;whiteSpace=wrap;html=1;rounded=1;" parent="UpgFTflyBAgRF1FKhpor-114" vertex="1">
          <mxGeometry y="30" width="310" height="30" as="geometry" />
        </mxCell>
        <mxCell id="UpgFTflyBAgRF1FKhpor-116" value="&lt;div style=&quot;background-color: rgb(255, 255, 255); font-family: Consolas, &amp;quot;Courier New&amp;quot;, monospace; font-size: 14px; line-height: 19px;&quot;&gt;&lt;div style=&quot;line-height: 19px;&quot;&gt;&lt;div style=&quot;line-height: 19px;&quot;&gt;&lt;div style=&quot;line-height: 19px;&quot;&gt;&lt;div style=&quot;line-height: 19px;&quot;&gt;&lt;div style=&quot;line-height: 19px;&quot;&gt;AR_GAME_METEOROID_RESET();&lt;/div&gt;&lt;/div&gt;&lt;/div&gt;&lt;/div&gt;&lt;/div&gt;&lt;/div&gt;" style="text;strokeColor=none;fillColor=none;align=left;verticalAlign=middle;spacingLeft=4;spacingRight=4;overflow=hidden;points=[[0,0.5],[1,0.5]];portConstraint=eastwest;rotatable=0;whiteSpace=wrap;html=1;rounded=1;" parent="UpgFTflyBAgRF1FKhpor-114" vertex="1">
          <mxGeometry y="60" width="310" height="30" as="geometry" />
        </mxCell>
        <mxCell id="UpgFTflyBAgRF1FKhpor-117" value="" style="edgeStyle=orthogonalEdgeStyle;rounded=1;orthogonalLoop=1;jettySize=auto;html=1;" parent="1" source="UpgFTflyBAgRF1FKhpor-133" target="UpgFTflyBAgRF1FKhpor-102" edge="1">
          <mxGeometry relative="1" as="geometry" />
        </mxCell>
        <mxCell id="UpgFTflyBAgRF1FKhpor-118" value="&lt;font style=&quot;font-size: 13px;&quot;&gt;Yes&lt;/font&gt;" style="edgeLabel;html=1;align=center;verticalAlign=middle;resizable=0;points=[];rounded=1;" parent="UpgFTflyBAgRF1FKhpor-117" vertex="1" connectable="0">
          <mxGeometry x="-0.0719" y="1" relative="1" as="geometry">
            <mxPoint x="13" y="-4" as="offset" />
          </mxGeometry>
        </mxCell>
        <mxCell id="UpgFTflyBAgRF1FKhpor-119" value="" style="edgeStyle=orthogonalEdgeStyle;rounded=1;orthogonalLoop=1;jettySize=auto;html=1;endArrow=halfCircle;endFill=0;" parent="1" source="UpgFTflyBAgRF1FKhpor-121" target="UpgFTflyBAgRF1FKhpor-122" edge="1">
          <mxGeometry relative="1" as="geometry" />
        </mxCell>
        <mxCell id="UpgFTflyBAgRF1FKhpor-120" value="" style="edgeStyle=orthogonalEdgeStyle;rounded=1;orthogonalLoop=1;jettySize=auto;html=1;" parent="1" source="UpgFTflyBAgRF1FKhpor-121" edge="1">
          <mxGeometry relative="1" as="geometry">
            <mxPoint x="209" y="540" as="targetPoint" />
            <Array as="points">
              <mxPoint x="179" y="540" />
            </Array>
          </mxGeometry>
        </mxCell>
        <mxCell id="UpgFTflyBAgRF1FKhpor-121" value="" style="ellipse;whiteSpace=wrap;html=1;rounded=1;" parent="1" vertex="1">
          <mxGeometry x="169" y="470" width="20" height="20" as="geometry" />
        </mxCell>
        <mxCell id="UpgFTflyBAgRF1FKhpor-122" value="&lt;div style=&quot;background-color: rgb(255, 255, 255); font-family: Consolas, &amp;quot;Courier New&amp;quot;, monospace; font-size: 14px; line-height: 19px;&quot;&gt;switch (&lt;span style=&quot;color: #001080;&quot;&gt;msg&lt;/span&gt;-&amp;gt;&lt;font color=&quot;#001080&quot;&gt;signal&lt;/font&gt;)&lt;/div&gt;" style="whiteSpace=wrap;html=1;rounded=1;" parent="1" vertex="1">
          <mxGeometry x="209" y="465" width="170" height="30" as="geometry" />
        </mxCell>
        <mxCell id="UpgFTflyBAgRF1FKhpor-123" value="" style="edgeStyle=orthogonalEdgeStyle;rounded=1;orthogonalLoop=1;jettySize=auto;html=1;entryX=0;entryY=0.116;entryDx=0;entryDy=0;entryPerimeter=0;" parent="1" target="UpgFTflyBAgRF1FKhpor-111" edge="1">
          <mxGeometry relative="1" as="geometry">
            <mxPoint x="209" y="665" as="sourcePoint" />
            <mxPoint x="189" y="770" as="targetPoint" />
            <Array as="points">
              <mxPoint x="179" y="665" />
              <mxPoint x="179" y="765" />
              <mxPoint x="209" y="765" />
            </Array>
          </mxGeometry>
        </mxCell>
        <mxCell id="UpgFTflyBAgRF1FKhpor-124" value="" style="edgeStyle=orthogonalEdgeStyle;rounded=1;orthogonalLoop=1;jettySize=auto;html=1;entryX=0;entryY=0.111;entryDx=0;entryDy=0;entryPerimeter=0;exitX=0;exitY=0.222;exitDx=0;exitDy=0;exitPerimeter=0;" parent="1" source="UpgFTflyBAgRF1FKhpor-111" target="UpgFTflyBAgRF1FKhpor-114" edge="1">
          <mxGeometry relative="1" as="geometry">
            <mxPoint x="199" y="780" as="sourcePoint" />
            <mxPoint x="208" y="839.5" as="targetPoint" />
            <Array as="points">
              <mxPoint x="179" y="775" />
              <mxPoint x="179" y="875" />
            </Array>
          </mxGeometry>
        </mxCell>
        <mxCell id="UpgFTflyBAgRF1FKhpor-125" value="" style="edgeStyle=orthogonalEdgeStyle;rounded=1;orthogonalLoop=1;jettySize=auto;html=1;entryX=0;entryY=0.066;entryDx=0;entryDy=0;entryPerimeter=0;exitX=0;exitY=0.209;exitDx=0;exitDy=0;exitPerimeter=0;" parent="1" source="UpgFTflyBAgRF1FKhpor-114" edge="1">
          <mxGeometry relative="1" as="geometry">
            <mxPoint x="199" y="880" as="sourcePoint" />
            <mxPoint x="207.62" y="980.94" as="targetPoint" />
            <Array as="points">
              <mxPoint x="208" y="885" />
              <mxPoint x="179" y="885" />
              <mxPoint x="179" y="981" />
            </Array>
          </mxGeometry>
        </mxCell>
        <mxCell id="UpgFTflyBAgRF1FKhpor-126" value="" style="edgeStyle=orthogonalEdgeStyle;rounded=1;orthogonalLoop=1;jettySize=auto;html=1;entryX=0.787;entryY=1;entryDx=0;entryDy=0;entryPerimeter=0;" parent="1" source="UpgFTflyBAgRF1FKhpor-127" target="UpgFTflyBAgRF1FKhpor-151" edge="1">
          <mxGeometry relative="1" as="geometry">
            <mxPoint x="647" y="220" as="targetPoint" />
            <Array as="points">
              <mxPoint x="648" y="985" />
              <mxPoint x="648" y="200" />
            </Array>
          </mxGeometry>
        </mxCell>
        <mxCell id="UpgFTflyBAgRF1FKhpor-127" value="&lt;div style=&quot;background-color: rgb(255, 255, 255); font-family: Consolas, &amp;quot;Courier New&amp;quot;, monospace; font-size: 14px; line-height: 19px;&quot;&gt;&lt;div style=&quot;line-height: 19px;&quot;&gt;&lt;div style=&quot;line-height: 19px;&quot;&gt;&lt;div style=&quot;line-height: 19px;&quot;&gt;&lt;div style=&quot;line-height: 19px;&quot;&gt;default&lt;/div&gt;&lt;/div&gt;&lt;/div&gt;&lt;/div&gt;&lt;/div&gt;" style="swimlane;fontStyle=0;childLayout=stackLayout;horizontal=1;startSize=30;horizontalStack=0;resizeParent=1;resizeParentMax=0;resizeLast=0;collapsible=1;marginBottom=0;whiteSpace=wrap;html=1;rounded=1;" parent="1" vertex="1">
          <mxGeometry x="209" y="975" width="310" height="30" as="geometry" />
        </mxCell>
        <mxCell id="UpgFTflyBAgRF1FKhpor-128" value="" style="edgeStyle=orthogonalEdgeStyle;rounded=1;orthogonalLoop=1;jettySize=auto;html=1;entryX=0.5;entryY=0;entryDx=0;entryDy=0;exitX=-0.004;exitY=0.13;exitDx=0;exitDy=0;exitPerimeter=0;" parent="1" source="UpgFTflyBAgRF1FKhpor-142" target="UpgFTflyBAgRF1FKhpor-133" edge="1">
          <mxGeometry relative="1" as="geometry">
            <mxPoint x="355" y="220" as="targetPoint" />
            <Array as="points">
              <mxPoint x="355" y="61" />
            </Array>
            <mxPoint x="423.00000000000045" y="170" as="sourcePoint" />
          </mxGeometry>
        </mxCell>
        <mxCell id="UpgFTflyBAgRF1FKhpor-130" value="" style="edgeStyle=orthogonalEdgeStyle;rounded=1;orthogonalLoop=1;jettySize=auto;html=1;" parent="1" edge="1">
          <mxGeometry relative="1" as="geometry">
            <mxPoint x="519" y="835" as="sourcePoint" />
            <mxPoint x="649" y="835" as="targetPoint" />
          </mxGeometry>
        </mxCell>
        <mxCell id="UpgFTflyBAgRF1FKhpor-131" value="" style="edgeStyle=orthogonalEdgeStyle;rounded=1;orthogonalLoop=1;jettySize=auto;html=1;" parent="1" edge="1">
          <mxGeometry relative="1" as="geometry">
            <mxPoint x="517.62" y="719.7" as="sourcePoint" />
            <mxPoint x="647.62" y="719.7" as="targetPoint" />
          </mxGeometry>
        </mxCell>
        <mxCell id="UpgFTflyBAgRF1FKhpor-132" value="" style="edgeStyle=orthogonalEdgeStyle;rounded=1;orthogonalLoop=1;jettySize=auto;html=1;" parent="1" edge="1">
          <mxGeometry relative="1" as="geometry">
            <mxPoint x="519" y="605" as="sourcePoint" />
            <mxPoint x="649" y="605" as="targetPoint" />
          </mxGeometry>
        </mxCell>
        <mxCell id="CxDIDh3Z8Sex8tNCwT2t-2" value="" style="edgeStyle=orthogonalEdgeStyle;rounded=0;orthogonalLoop=1;jettySize=auto;html=1;exitX=0.016;exitY=0.502;exitDx=0;exitDy=0;exitPerimeter=0;" parent="1" source="UpgFTflyBAgRF1FKhpor-133" edge="1">
          <mxGeometry relative="1" as="geometry">
            <mxPoint x="355" y="190" as="targetPoint" />
            <Array as="points">
              <mxPoint x="180" y="265" />
              <mxPoint x="180" y="190" />
            </Array>
          </mxGeometry>
        </mxCell>
        <mxCell id="CxDIDh3Z8Sex8tNCwT2t-3" value="&lt;font style=&quot;font-size: 13px;&quot;&gt;No&lt;/font&gt;" style="edgeLabel;html=1;align=center;verticalAlign=middle;resizable=0;points=[];" parent="CxDIDh3Z8Sex8tNCwT2t-2" vertex="1" connectable="0">
          <mxGeometry x="-0.6208" y="-1" relative="1" as="geometry">
            <mxPoint x="11" as="offset" />
          </mxGeometry>
        </mxCell>
        <mxCell id="UpgFTflyBAgRF1FKhpor-133" value="&lt;div style=&quot;background-color: rgb(255, 255, 255); font-family: Consolas, &amp;quot;Courier New&amp;quot;, monospace; font-size: 14px; line-height: 19px;&quot;&gt;task_post_pure_msg(&lt;/div&gt;&lt;span style=&quot;background-color: rgb(255, 255, 255);&quot;&gt;&lt;font face=&quot;Consolas, Courier New, monospace&quot;&gt;&lt;font color=&quot;#ff3333&quot;&gt;AR_GAME_METEOROID_ID&lt;/font&gt;,&amp;nbsp;&lt;/font&gt;&lt;/span&gt;&lt;font face=&quot;Consolas, Courier New, monospace&quot; color=&quot;#ff3333&quot;&gt;&lt;br&gt;&lt;/font&gt;&lt;div style=&quot;background-color: rgb(255, 255, 255); font-family: Consolas, &amp;quot;Courier New&amp;quot;, monospace; font-size: 14px; line-height: 19px;&quot;&gt;&lt;font color=&quot;#ff0000&quot;&gt;signal&lt;/font&gt;)&lt;/div&gt;" style="rhombus;whiteSpace=wrap;html=1;rounded=1;" parent="1" vertex="1">
          <mxGeometry x="192.37" y="210" width="325.25" height="110" as="geometry" />
        </mxCell>
        <mxCell id="UpgFTflyBAgRF1FKhpor-135" value="&lt;b&gt;(1)&lt;/b&gt;" style="text;html=1;strokeColor=none;fillColor=none;align=center;verticalAlign=middle;whiteSpace=wrap;rounded=0;" parent="1" vertex="1">
          <mxGeometry x="321" y="40" width="30" height="30" as="geometry" />
        </mxCell>
        <mxCell id="UpgFTflyBAgRF1FKhpor-136" value="&lt;b&gt;(2)&lt;/b&gt;" style="text;html=1;strokeColor=none;fillColor=none;align=center;verticalAlign=middle;whiteSpace=wrap;rounded=0;" parent="1" vertex="1">
          <mxGeometry x="159" y="270" width="30" height="30" as="geometry" />
        </mxCell>
        <mxCell id="UpgFTflyBAgRF1FKhpor-137" value="&lt;b&gt;(5)&lt;/b&gt;" style="text;html=1;strokeColor=none;fillColor=none;align=center;verticalAlign=middle;whiteSpace=wrap;rounded=0;" parent="1" vertex="1">
          <mxGeometry x="517.62" y="575" width="30" height="30" as="geometry" />
        </mxCell>
        <mxCell id="UpgFTflyBAgRF1FKhpor-138" value="&lt;b&gt;(6)&lt;/b&gt;" style="text;html=1;strokeColor=none;fillColor=none;align=center;verticalAlign=middle;whiteSpace=wrap;rounded=0;" parent="1" vertex="1">
          <mxGeometry x="519" y="685" width="30" height="40" as="geometry" />
        </mxCell>
        <mxCell id="UpgFTflyBAgRF1FKhpor-139" value="&lt;b&gt;(7)&lt;/b&gt;" style="text;html=1;strokeColor=none;fillColor=none;align=center;verticalAlign=middle;whiteSpace=wrap;rounded=0;" parent="1" vertex="1">
          <mxGeometry x="519" y="805" width="30" height="30" as="geometry" />
        </mxCell>
        <mxCell id="UpgFTflyBAgRF1FKhpor-140" value="&lt;b&gt;(8)&lt;/b&gt;" style="text;html=1;strokeColor=none;fillColor=none;align=center;verticalAlign=middle;whiteSpace=wrap;rounded=0;" parent="1" vertex="1">
          <mxGeometry x="519" y="900" width="30" height="30" as="geometry" />
        </mxCell>
        <mxCell id="UpgFTflyBAgRF1FKhpor-141" value="&lt;b&gt;(9)&lt;/b&gt;" style="text;html=1;strokeColor=none;fillColor=none;align=center;verticalAlign=middle;whiteSpace=wrap;rounded=0;" parent="1" vertex="1">
          <mxGeometry x="621" y="955" width="30" height="30" as="geometry" />
        </mxCell>
        <mxCell id="UpgFTflyBAgRF1FKhpor-142" value="scr_archery_game_handle(&lt;span style=&quot;border-color: var(--border-color); font-family: Consolas, &amp;quot;Courier New&amp;quot;, monospace; font-size: 14px; color: rgb(38, 127, 153);&quot;&gt;ak_msg_t&lt;/span&gt;&lt;span style=&quot;border-color: var(--border-color); font-family: Consolas, &amp;quot;Courier New&amp;quot;, monospace; font-size: 14px; color: rgb(0, 0, 255);&quot;&gt;*&lt;/span&gt;&lt;span style=&quot;font-family: Consolas, &amp;quot;Courier New&amp;quot;, monospace; font-size: 14px; background-color: rgb(255, 255, 255);&quot;&gt;&amp;nbsp;&lt;/span&gt;&lt;span style=&quot;border-color: var(--border-color); font-family: Consolas, &amp;quot;Courier New&amp;quot;, monospace; font-size: 14px; color: rgb(0, 16, 128);&quot;&gt;msg&lt;/span&gt;&lt;span style=&quot;font-family: Consolas, &amp;quot;Courier New&amp;quot;, monospace; font-size: 14px; background-color: rgb(255, 255, 255);&quot;&gt;)&lt;/span&gt;" style="swimlane;fontStyle=0;childLayout=stackLayout;horizontal=1;startSize=40;horizontalStack=0;resizeParent=1;resizeParentMax=0;resizeLast=0;collapsible=1;marginBottom=0;whiteSpace=wrap;html=1;" parent="1" vertex="1">
          <mxGeometry x="423" y="40" width="286" height="160" as="geometry" />
        </mxCell>
        <mxCell id="UpgFTflyBAgRF1FKhpor-143" value="&lt;div style=&quot;background-color: rgb(255, 255, 255); font-family: Consolas, &amp;quot;Courier New&amp;quot;, monospace; font-size: 14px; line-height: 19px;&quot;&gt;&lt;div style=&quot;line-height: 19px;&quot;&gt;&lt;div style=&quot;line-height: 19px;&quot;&gt;&lt;div style=&quot;line-height: 19px;&quot;&gt;AR_GAME_METEOROID_SETUP&lt;/div&gt;&lt;/div&gt;&lt;/div&gt;&lt;/div&gt;" style="text;strokeColor=none;fillColor=none;align=left;verticalAlign=middle;spacingLeft=4;spacingRight=4;overflow=hidden;points=[[0,0.5],[1,0.5]];portConstraint=eastwest;rotatable=0;whiteSpace=wrap;html=1;" parent="UpgFTflyBAgRF1FKhpor-142" vertex="1">
          <mxGeometry y="40" width="286" height="30" as="geometry" />
        </mxCell>
        <mxCell id="UpgFTflyBAgRF1FKhpor-144" value="&lt;div style=&quot;background-color: rgb(255, 255, 255); font-family: Consolas, &amp;quot;Courier New&amp;quot;, monospace; font-size: 14px; line-height: 19px;&quot;&gt;&lt;div style=&quot;line-height: 19px;&quot;&gt;&lt;div style=&quot;line-height: 19px;&quot;&gt;&lt;div style=&quot;line-height: 19px;&quot;&gt;AR_GAME_METEOROID_RUN&lt;/div&gt;&lt;/div&gt;&lt;/div&gt;&lt;/div&gt;" style="text;strokeColor=none;fillColor=none;align=left;verticalAlign=middle;spacingLeft=4;spacingRight=4;overflow=hidden;points=[[0,0.5],[1,0.5]];portConstraint=eastwest;rotatable=0;whiteSpace=wrap;html=1;" parent="UpgFTflyBAgRF1FKhpor-142" vertex="1">
          <mxGeometry y="70" width="286" height="30" as="geometry" />
        </mxCell>
        <mxCell id="UpgFTflyBAgRF1FKhpor-145" value="&lt;div style=&quot;background-color: rgb(255, 255, 255); font-family: Consolas, &amp;quot;Courier New&amp;quot;, monospace; font-size: 14px; line-height: 19px;&quot;&gt;&lt;div style=&quot;line-height: 19px;&quot;&gt;&lt;div style=&quot;line-height: 19px;&quot;&gt;&lt;div style=&quot;line-height: 19px;&quot;&gt;AR_GAME_METEOROID_DETONATOR&lt;/div&gt;&lt;/div&gt;&lt;/div&gt;&lt;/div&gt;" style="text;strokeColor=none;fillColor=none;align=left;verticalAlign=middle;spacingLeft=4;spacingRight=4;overflow=hidden;points=[[0,0.5],[1,0.5]];portConstraint=eastwest;rotatable=0;whiteSpace=wrap;html=1;" parent="UpgFTflyBAgRF1FKhpor-142" vertex="1">
          <mxGeometry y="100" width="286" height="30" as="geometry" />
        </mxCell>
        <mxCell id="UpgFTflyBAgRF1FKhpor-151" value="&lt;div style=&quot;background-color: rgb(255, 255, 255); font-family: Consolas, &amp;quot;Courier New&amp;quot;, monospace; font-size: 14px; line-height: 19px;&quot;&gt;&lt;div style=&quot;line-height: 19px;&quot;&gt;&lt;div style=&quot;line-height: 19px;&quot;&gt;&lt;div style=&quot;line-height: 19px;&quot;&gt;AR_GAME_METEOROID_RESET&lt;/div&gt;&lt;/div&gt;&lt;/div&gt;&lt;/div&gt;" style="text;strokeColor=none;fillColor=none;align=left;verticalAlign=middle;spacingLeft=4;spacingRight=4;overflow=hidden;points=[[0,0.5],[1,0.5]];portConstraint=eastwest;rotatable=0;whiteSpace=wrap;html=1;" parent="UpgFTflyBAgRF1FKhpor-142" vertex="1">
          <mxGeometry y="130" width="286" height="30" as="geometry" />
        </mxCell>
        <mxCell id="UpgFTflyBAgRF1FKhpor-149" value="&lt;b&gt;(3)&lt;/b&gt;" style="text;html=1;strokeColor=none;fillColor=none;align=center;verticalAlign=middle;whiteSpace=wrap;rounded=0;" parent="1" vertex="1">
          <mxGeometry x="159" y="335" width="30" height="30" as="geometry" />
        </mxCell>
        <mxCell id="UpgFTflyBAgRF1FKhpor-150" value="&lt;b&gt;(4)&lt;/b&gt;" style="text;html=1;strokeColor=none;fillColor=none;align=center;verticalAlign=middle;whiteSpace=wrap;rounded=0;" parent="1" vertex="1">
          <mxGeometry x="159" y="420" width="30" height="30" as="geometry" />
        </mxCell>
        <mxCell id="UpgFTflyBAgRF1FKhpor-159" value="" style="edgeStyle=orthogonalEdgeStyle;rounded=1;orthogonalLoop=1;jettySize=auto;html=1;" parent="1" edge="1">
          <mxGeometry relative="1" as="geometry">
            <mxPoint x="517.62" y="940" as="sourcePoint" />
            <mxPoint x="647.62" y="940" as="targetPoint" />
          </mxGeometry>
        </mxCell>
      </root>
    </mxGraphModel>
  </diagram>
  <diagram id="vz9rmZPSco1qUPVxlytu" name="Page-2">
    <mxGraphModel dx="1167" dy="602" grid="1" gridSize="10" guides="1" tooltips="1" connect="1" arrows="1" fold="1" page="1" pageScale="1" pageWidth="850" pageHeight="1100" math="0" shadow="0">
      <root>
        <mxCell id="0" />
        <mxCell id="1" parent="0" />
        <mxCell id="Z_ih8TIKBVAhltBskZZr-1" value="Screen" style="rounded=1;whiteSpace=wrap;html=1;" parent="1" vertex="1">
          <mxGeometry x="399" y="80" width="80" height="40" as="geometry" />
        </mxCell>
        <mxCell id="Z_ih8TIKBVAhltBskZZr-3" value="Meteoroid" style="rounded=1;whiteSpace=wrap;html=1;" parent="1" vertex="1">
          <mxGeometry x="640" y="80" width="80" height="40" as="geometry" />
        </mxCell>
        <mxCell id="Z_ih8TIKBVAhltBskZZr-6" value="" style="endArrow=none;dashed=1;html=1;rounded=0;entryX=0.5;entryY=1;entryDx=0;entryDy=0;" parent="1" source="Z_ih8TIKBVAhltBskZZr-12" target="Z_ih8TIKBVAhltBskZZr-3" edge="1">
          <mxGeometry width="50" height="50" relative="1" as="geometry">
            <mxPoint x="680" y="490" as="sourcePoint" />
            <mxPoint x="680" y="130" as="targetPoint" />
          </mxGeometry>
        </mxCell>
        <mxCell id="Z_ih8TIKBVAhltBskZZr-7" value="" style="edgeStyle=orthogonalEdgeStyle;rounded=0;orthogonalLoop=1;jettySize=auto;html=1;entryX=0;entryY=0;entryDx=0;entryDy=0;exitX=1;exitY=0.75;exitDx=0;exitDy=0;" parent="1" target="Z_ih8TIKBVAhltBskZZr-12" edge="1" source="Nf0Q_2E6Zr9-tCof2FJ3-6">
          <mxGeometry relative="1" as="geometry">
            <mxPoint x="465.76" y="158.38" as="sourcePoint" />
            <mxPoint x="570.11" y="310.0000000000001" as="targetPoint" />
            <Array as="points">
              <mxPoint x="445" y="160" />
            </Array>
          </mxGeometry>
        </mxCell>
        <mxCell id="Z_ih8TIKBVAhltBskZZr-8" value="AR_GAME_BORDER_SETUP" style="edgeLabel;html=1;align=center;verticalAlign=middle;resizable=0;points=[];" parent="Z_ih8TIKBVAhltBskZZr-7" vertex="1" connectable="0">
          <mxGeometry x="-0.0338" y="-2" relative="1" as="geometry">
            <mxPoint x="4" y="-12" as="offset" />
          </mxGeometry>
        </mxCell>
        <mxCell id="Z_ih8TIKBVAhltBskZZr-10" value="" style="endArrow=none;dashed=1;html=1;rounded=0;entryX=0.5;entryY=1;entryDx=0;entryDy=0;exitX=0.5;exitY=1;exitDx=0;exitDy=0;" parent="1" source="Z_ih8TIKBVAhltBskZZr-28" target="Z_ih8TIKBVAhltBskZZr-12" edge="1">
          <mxGeometry width="50" height="50" relative="1" as="geometry">
            <mxPoint x="680" y="480" as="sourcePoint" />
            <mxPoint x="680" y="120" as="targetPoint" />
          </mxGeometry>
        </mxCell>
        <mxCell id="Z_ih8TIKBVAhltBskZZr-12" value="" style="rounded=0;whiteSpace=wrap;html=1;" parent="1" vertex="1">
          <mxGeometry x="675.11" y="160" width="10" height="30" as="geometry" />
        </mxCell>
        <mxCell id="Nf0Q_2E6Zr9-tCof2FJ3-33" value="" style="edgeStyle=orthogonalEdgeStyle;rounded=0;orthogonalLoop=1;jettySize=auto;html=1;entryX=0.95;entryY=0.694;entryDx=0;entryDy=0;entryPerimeter=0;" edge="1" parent="1" source="Z_ih8TIKBVAhltBskZZr-20" target="Z_ih8TIKBVAhltBskZZr-20">
          <mxGeometry relative="1" as="geometry">
            <Array as="points">
              <mxPoint x="700" y="460" />
              <mxPoint x="700" y="481" />
            </Array>
          </mxGeometry>
        </mxCell>
        <mxCell id="Z_ih8TIKBVAhltBskZZr-20" value="" style="rounded=0;whiteSpace=wrap;html=1;" parent="1" vertex="1">
          <mxGeometry x="675.78" y="460" width="10" height="30" as="geometry" />
        </mxCell>
        <mxCell id="Z_ih8TIKBVAhltBskZZr-21" value="" style="edgeStyle=orthogonalEdgeStyle;rounded=0;orthogonalLoop=1;jettySize=auto;html=1;entryX=0;entryY=0;entryDx=0;entryDy=0;exitX=0.75;exitY=1;exitDx=0;exitDy=0;" parent="1" target="Z_ih8TIKBVAhltBskZZr-20" edge="1" source="Nf0Q_2E6Zr9-tCof2FJ3-9">
          <mxGeometry relative="1" as="geometry">
            <mxPoint x="465.49999999999994" y="459.98" as="sourcePoint" />
            <mxPoint x="675.78" y="449.9399999999998" as="targetPoint" />
            <Array as="points">
              <mxPoint x="620" y="460" />
              <mxPoint x="620" y="460" />
            </Array>
          </mxGeometry>
        </mxCell>
        <mxCell id="Z_ih8TIKBVAhltBskZZr-22" value="AR_GAME_METEOROID_DETONATOR" style="edgeLabel;html=1;align=center;verticalAlign=middle;resizable=0;points=[];" parent="Z_ih8TIKBVAhltBskZZr-21" vertex="1" connectable="0">
          <mxGeometry x="-0.0338" y="-2" relative="1" as="geometry">
            <mxPoint x="4" y="-12" as="offset" />
          </mxGeometry>
        </mxCell>
        <mxCell id="Z_ih8TIKBVAhltBskZZr-25" value="" style="edgeStyle=orthogonalEdgeStyle;rounded=0;orthogonalLoop=1;jettySize=auto;html=1;entryX=0;entryY=0;entryDx=0;entryDy=0;exitX=0.958;exitY=0.668;exitDx=0;exitDy=0;exitPerimeter=0;" parent="1" target="Z_ih8TIKBVAhltBskZZr-28" edge="1" source="Nf0Q_2E6Zr9-tCof2FJ3-12">
          <mxGeometry relative="1" as="geometry">
            <mxPoint x="464.99999999999983" y="539.26" as="sourcePoint" />
            <mxPoint x="570.78" y="690.0000000000001" as="targetPoint" />
            <Array as="points">
              <mxPoint x="450" y="540" />
            </Array>
          </mxGeometry>
        </mxCell>
        <mxCell id="Z_ih8TIKBVAhltBskZZr-26" value="AR_GAME_BORDER_RESET" style="edgeLabel;html=1;align=center;verticalAlign=middle;resizable=0;points=[];" parent="Z_ih8TIKBVAhltBskZZr-25" vertex="1" connectable="0">
          <mxGeometry x="-0.0338" y="-2" relative="1" as="geometry">
            <mxPoint x="5" y="-12" as="offset" />
          </mxGeometry>
        </mxCell>
        <mxCell id="Z_ih8TIKBVAhltBskZZr-28" value="" style="rounded=0;whiteSpace=wrap;html=1;" parent="1" vertex="1">
          <mxGeometry x="675.78" y="540" width="10" height="20" as="geometry" />
        </mxCell>
        <mxCell id="Z_ih8TIKBVAhltBskZZr-29" value="Setup thuộc tính&amp;nbsp;&lt;br&gt;ban đầu" style="shape=callout;whiteSpace=wrap;html=1;perimeter=calloutPerimeter;position2=0;base=22;size=10;position=0.17;" parent="1" vertex="1">
          <mxGeometry x="690" y="130" width="130" height="40" as="geometry" />
        </mxCell>
        <mxCell id="Z_ih8TIKBVAhltBskZZr-57" value="" style="edgeStyle=orthogonalEdgeStyle;rounded=0;orthogonalLoop=1;jettySize=auto;html=1;entryX=0;entryY=0;entryDx=0;entryDy=0;exitX=1;exitY=0.25;exitDx=0;exitDy=0;" parent="1" target="Z_ih8TIKBVAhltBskZZr-60" edge="1" source="Nf0Q_2E6Zr9-tCof2FJ3-8">
          <mxGeometry relative="1" as="geometry">
            <mxPoint x="465.76" y="260.70000000000005" as="sourcePoint" />
            <mxPoint x="570.11" y="410.0000000000001" as="targetPoint" />
            <Array as="points">
              <mxPoint x="445" y="260" />
              <mxPoint x="445" y="260" />
            </Array>
          </mxGeometry>
        </mxCell>
        <mxCell id="Z_ih8TIKBVAhltBskZZr-58" value="AR_GAME_METEOROID_RUN" style="edgeLabel;html=1;align=center;verticalAlign=middle;resizable=0;points=[];" parent="Z_ih8TIKBVAhltBskZZr-57" vertex="1" connectable="0">
          <mxGeometry x="-0.0338" y="-2" relative="1" as="geometry">
            <mxPoint x="4" y="-12" as="offset" />
          </mxGeometry>
        </mxCell>
        <mxCell id="Z_ih8TIKBVAhltBskZZr-60" value="" style="rounded=0;whiteSpace=wrap;html=1;" parent="1" vertex="1">
          <mxGeometry x="675.11" y="260" width="10" height="20" as="geometry" />
        </mxCell>
        <mxCell id="Z_ih8TIKBVAhltBskZZr-62" style="edgeStyle=orthogonalEdgeStyle;rounded=0;orthogonalLoop=1;jettySize=auto;html=1;exitX=0.5;exitY=1;exitDx=0;exitDy=0;" parent="1" edge="1">
          <mxGeometry relative="1" as="geometry">
            <mxPoint x="824.2399999999999" y="259.0000000000001" as="sourcePoint" />
            <mxPoint x="824.2399999999999" y="259.0000000000001" as="targetPoint" />
          </mxGeometry>
        </mxCell>
        <mxCell id="Z_ih8TIKBVAhltBskZZr-64" value="Thiên thạch di chuyển" style="shape=callout;whiteSpace=wrap;html=1;perimeter=calloutPerimeter;position2=0;base=22;size=10;position=0.17;" parent="1" vertex="1">
          <mxGeometry x="690.67" y="361" width="130" height="40" as="geometry" />
        </mxCell>
        <mxCell id="Z_ih8TIKBVAhltBskZZr-65" value="Reset thuộc tính" style="shape=callout;whiteSpace=wrap;html=1;perimeter=calloutPerimeter;position2=0;base=22;size=10;position=0.17;" parent="1" vertex="1">
          <mxGeometry x="690" y="508" width="130" height="40" as="geometry" />
        </mxCell>
        <mxCell id="AJawywp7CrKpe5rzHfXs-8" value="" style="edgeStyle=orthogonalEdgeStyle;rounded=0;orthogonalLoop=1;jettySize=auto;html=1;entryX=0;entryY=0;entryDx=0;entryDy=0;exitX=1;exitY=0.25;exitDx=0;exitDy=0;" parent="1" target="AJawywp7CrKpe5rzHfXs-11" edge="1" source="Nf0Q_2E6Zr9-tCof2FJ3-9">
          <mxGeometry relative="1" as="geometry">
            <mxPoint x="466.43" y="399.70000000000005" as="sourcePoint" />
            <mxPoint x="570.78" y="549.0000000000001" as="targetPoint" />
            <Array as="points">
              <mxPoint x="600" y="400" />
              <mxPoint x="600" y="400" />
            </Array>
          </mxGeometry>
        </mxCell>
        <mxCell id="AJawywp7CrKpe5rzHfXs-9" value="AR_GAME_METEOROID_RUN" style="edgeLabel;html=1;align=center;verticalAlign=middle;resizable=0;points=[];" parent="AJawywp7CrKpe5rzHfXs-8" vertex="1" connectable="0">
          <mxGeometry x="-0.0338" y="-2" relative="1" as="geometry">
            <mxPoint x="7" y="-12" as="offset" />
          </mxGeometry>
        </mxCell>
        <mxCell id="AJawywp7CrKpe5rzHfXs-11" value="" style="rounded=0;whiteSpace=wrap;html=1;" parent="1" vertex="1">
          <mxGeometry x="675.78" y="400" width="10" height="20" as="geometry" />
        </mxCell>
        <mxCell id="AJawywp7CrKpe5rzHfXs-17" value="Mũi tên không chạm vào Thiên thạch" style="shape=callout;whiteSpace=wrap;html=1;perimeter=calloutPerimeter;position2=0;base=22;size=10;position=0.17;" parent="1" vertex="1">
          <mxGeometry x="690.67" y="290" width="130" height="40" as="geometry" />
        </mxCell>
        <mxCell id="Nf0Q_2E6Zr9-tCof2FJ3-1" value="" style="endArrow=none;dashed=1;html=1;rounded=0;entryX=0.5;entryY=1;entryDx=0;entryDy=0;" edge="1" parent="1" source="Nf0Q_2E6Zr9-tCof2FJ3-6">
          <mxGeometry width="50" height="50" relative="1" as="geometry">
            <mxPoint x="440" y="480.03" as="sourcePoint" />
            <mxPoint x="440" y="120.02999999999999" as="targetPoint" />
          </mxGeometry>
        </mxCell>
        <mxCell id="Nf0Q_2E6Zr9-tCof2FJ3-2" value="" style="endArrow=none;dashed=1;html=1;rounded=0;entryX=0.5;entryY=1;entryDx=0;entryDy=0;" edge="1" parent="1" source="Nf0Q_2E6Zr9-tCof2FJ3-8" target="Nf0Q_2E6Zr9-tCof2FJ3-6">
          <mxGeometry width="50" height="50" relative="1" as="geometry">
            <mxPoint x="440" y="480.03" as="sourcePoint" />
            <mxPoint x="440" y="120.02999999999999" as="targetPoint" />
          </mxGeometry>
        </mxCell>
        <mxCell id="Nf0Q_2E6Zr9-tCof2FJ3-3" value="" style="edgeStyle=orthogonalEdgeStyle;rounded=0;orthogonalLoop=1;jettySize=auto;html=1;" edge="1" parent="1" source="Nf0Q_2E6Zr9-tCof2FJ3-6">
          <mxGeometry relative="1" as="geometry">
            <mxPoint x="361" y="150.02999999999997" as="targetPoint" />
            <Array as="points">
              <mxPoint x="421" y="150.02999999999997" />
              <mxPoint x="421" y="150.02999999999997" />
            </Array>
          </mxGeometry>
        </mxCell>
        <mxCell id="Nf0Q_2E6Zr9-tCof2FJ3-4" value="&lt;div style=&quot;color: rgb(212, 212, 212); background-color: rgb(30, 30, 30); font-family: Consolas, &amp;quot;Courier New&amp;quot;, monospace; font-size: 14px; line-height: 19px;&quot;&gt;&lt;br&gt;&lt;/div&gt;" style="edgeLabel;html=1;align=center;verticalAlign=middle;resizable=0;points=[];" vertex="1" connectable="0" parent="Nf0Q_2E6Zr9-tCof2FJ3-3">
          <mxGeometry x="0.1755" relative="1" as="geometry">
            <mxPoint as="offset" />
          </mxGeometry>
        </mxCell>
        <mxCell id="Nf0Q_2E6Zr9-tCof2FJ3-5" value="timer_set" style="edgeLabel;html=1;align=center;verticalAlign=middle;resizable=0;points=[];" vertex="1" connectable="0" parent="Nf0Q_2E6Zr9-tCof2FJ3-3">
          <mxGeometry x="0.299" y="-1" relative="1" as="geometry">
            <mxPoint x="12" y="-10" as="offset" />
          </mxGeometry>
        </mxCell>
        <mxCell id="Nf0Q_2E6Zr9-tCof2FJ3-6" value="" style="rounded=0;whiteSpace=wrap;html=1;" vertex="1" parent="1">
          <mxGeometry x="435" y="140.02999999999997" width="10" height="30" as="geometry" />
        </mxCell>
        <mxCell id="Nf0Q_2E6Zr9-tCof2FJ3-7" value="" style="endArrow=none;dashed=1;html=1;rounded=0;entryX=0.5;entryY=1;entryDx=0;entryDy=0;" edge="1" parent="1" target="Nf0Q_2E6Zr9-tCof2FJ3-8">
          <mxGeometry width="50" height="50" relative="1" as="geometry">
            <mxPoint x="440" y="560" as="sourcePoint" />
            <mxPoint x="440" y="170.02999999999997" as="targetPoint" />
          </mxGeometry>
        </mxCell>
        <mxCell id="Nf0Q_2E6Zr9-tCof2FJ3-8" value="" style="rounded=0;whiteSpace=wrap;html=1;" vertex="1" parent="1">
          <mxGeometry x="435" y="240.03" width="10" height="79.97" as="geometry" />
        </mxCell>
        <mxCell id="Nf0Q_2E6Zr9-tCof2FJ3-9" value="" style="rounded=0;whiteSpace=wrap;html=1;" vertex="1" parent="1">
          <mxGeometry x="435" y="380.03" width="10" height="79.97" as="geometry" />
        </mxCell>
        <mxCell id="Nf0Q_2E6Zr9-tCof2FJ3-12" value="" style="rounded=0;whiteSpace=wrap;html=1;" vertex="1" parent="1">
          <mxGeometry x="435" y="520.03" width="10" height="30" as="geometry" />
        </mxCell>
        <mxCell id="Nf0Q_2E6Zr9-tCof2FJ3-13" value="Timer&lt;br&gt;100ms" style="shape=umlLifeline;perimeter=lifelinePerimeter;whiteSpace=wrap;html=1;container=1;dropTarget=0;collapsible=0;recursiveResize=0;outlineConnect=0;portConstraint=eastwest;newEdgeStyle={&quot;curved&quot;:0,&quot;rounded&quot;:0};participant=umlControl;verticalAlign=middle;size=50;" vertex="1" parent="1">
          <mxGeometry x="280" y="120" width="80" height="440" as="geometry" />
        </mxCell>
        <mxCell id="Nf0Q_2E6Zr9-tCof2FJ3-14" value="" style="edgeStyle=orthogonalEdgeStyle;rounded=0;orthogonalLoop=1;jettySize=auto;html=1;" edge="1" parent="1" source="Nf0Q_2E6Zr9-tCof2FJ3-16" target="Nf0Q_2E6Zr9-tCof2FJ3-8">
          <mxGeometry relative="1" as="geometry">
            <Array as="points">
              <mxPoint x="411" y="240.02999999999997" />
              <mxPoint x="411" y="240.02999999999997" />
            </Array>
          </mxGeometry>
        </mxCell>
        <mxCell id="Nf0Q_2E6Zr9-tCof2FJ3-15" value="AR_GAME_TIME_TICK" style="edgeLabel;html=1;align=center;verticalAlign=middle;resizable=0;points=[];" vertex="1" connectable="0" parent="Nf0Q_2E6Zr9-tCof2FJ3-14">
          <mxGeometry x="-0.1059" y="1" relative="1" as="geometry">
            <mxPoint x="15" y="-12" as="offset" />
          </mxGeometry>
        </mxCell>
        <mxCell id="Nf0Q_2E6Zr9-tCof2FJ3-16" value="" style="rounded=0;whiteSpace=wrap;html=1;" vertex="1" parent="1">
          <mxGeometry x="315" y="220.02999999999997" width="10" height="20" as="geometry" />
        </mxCell>
        <mxCell id="Nf0Q_2E6Zr9-tCof2FJ3-17" value="" style="rounded=0;whiteSpace=wrap;html=1;" vertex="1" parent="1">
          <mxGeometry x="315" y="360.03" width="10" height="20" as="geometry" />
        </mxCell>
        <mxCell id="Nf0Q_2E6Zr9-tCof2FJ3-19" value="" style="edgeStyle=orthogonalEdgeStyle;rounded=0;orthogonalLoop=1;jettySize=auto;html=1;" edge="1" parent="1">
          <mxGeometry relative="1" as="geometry">
            <mxPoint x="325" y="379.54999999999995" as="sourcePoint" />
            <mxPoint x="435" y="379.54999999999995" as="targetPoint" />
            <Array as="points">
              <mxPoint x="411" y="379.54999999999995" />
              <mxPoint x="411" y="379.54999999999995" />
            </Array>
          </mxGeometry>
        </mxCell>
        <mxCell id="Nf0Q_2E6Zr9-tCof2FJ3-20" value="AR_GAME_TIME_TICK" style="edgeLabel;html=1;align=center;verticalAlign=middle;resizable=0;points=[];" vertex="1" connectable="0" parent="Nf0Q_2E6Zr9-tCof2FJ3-19">
          <mxGeometry x="-0.1579" y="2" relative="1" as="geometry">
            <mxPoint x="15" y="-12" as="offset" />
          </mxGeometry>
        </mxCell>
        <mxCell id="Nf0Q_2E6Zr9-tCof2FJ3-23" value="" style="rounded=0;whiteSpace=wrap;html=1;" vertex="1" parent="1">
          <mxGeometry x="674.78" y="320.01" width="10" height="19.99" as="geometry" />
        </mxCell>
        <mxCell id="Nf0Q_2E6Zr9-tCof2FJ3-24" value="" style="edgeStyle=orthogonalEdgeStyle;rounded=0;orthogonalLoop=1;jettySize=auto;html=1;entryX=0;entryY=0;entryDx=0;entryDy=0;exitX=0.5;exitY=1;exitDx=0;exitDy=0;" edge="1" parent="1" target="Nf0Q_2E6Zr9-tCof2FJ3-23" source="Nf0Q_2E6Zr9-tCof2FJ3-8">
          <mxGeometry relative="1" as="geometry">
            <mxPoint x="464.5" y="319.99" as="sourcePoint" />
            <mxPoint x="674.78" y="309.9499999999999" as="targetPoint" />
            <Array as="points">
              <mxPoint x="620" y="320" />
              <mxPoint x="620" y="320" />
            </Array>
          </mxGeometry>
        </mxCell>
        <mxCell id="Nf0Q_2E6Zr9-tCof2FJ3-25" value="AR_GAME_METEOROID_DETONATOR" style="edgeLabel;html=1;align=center;verticalAlign=middle;resizable=0;points=[];" vertex="1" connectable="0" parent="Nf0Q_2E6Zr9-tCof2FJ3-24">
          <mxGeometry x="-0.0338" y="-2" relative="1" as="geometry">
            <mxPoint x="4" y="-12" as="offset" />
          </mxGeometry>
        </mxCell>
        <mxCell id="Nf0Q_2E6Zr9-tCof2FJ3-28" value="alt" style="shape=umlFrame;whiteSpace=wrap;html=1;pointerEvents=0;recursiveResize=0;container=1;collapsible=0;width=40;height=31;" vertex="1" parent="1">
          <mxGeometry x="160" y="199" width="670" height="300" as="geometry" />
        </mxCell>
        <mxCell id="Nf0Q_2E6Zr9-tCof2FJ3-29" value="if (&lt;br&gt;arrow[i].x != meteoroid[j].x&lt;br&gt;&amp;amp;&amp;amp;&amp;nbsp;&lt;br&gt;arrow[i].y != meteoroid[j].y&lt;br&gt;)" style="text;html=1;" vertex="1" parent="Nf0Q_2E6Zr9-tCof2FJ3-28">
          <mxGeometry width="140" height="90" relative="1" as="geometry">
            <mxPoint x="9" y="36" as="offset" />
          </mxGeometry>
        </mxCell>
        <mxCell id="Nf0Q_2E6Zr9-tCof2FJ3-30" value="" style="line;strokeWidth=1;dashed=1;labelPosition=center;verticalLabelPosition=bottom;align=left;verticalAlign=top;spacingLeft=20;spacingTop=15;html=1;whiteSpace=wrap;" vertex="1" parent="Nf0Q_2E6Zr9-tCof2FJ3-28">
          <mxGeometry y="145" width="670" height="10" as="geometry" />
        </mxCell>
        <mxCell id="Nf0Q_2E6Zr9-tCof2FJ3-31" value="[else]" style="text;html=1;" vertex="1" parent="Nf0Q_2E6Zr9-tCof2FJ3-28">
          <mxGeometry x="10" y="219" width="100" height="20" as="geometry" />
        </mxCell>
        <mxCell id="Z_ih8TIKBVAhltBskZZr-61" value="Thiên thạch di chuyển" style="shape=callout;whiteSpace=wrap;html=1;perimeter=calloutPerimeter;position2=0;base=22;size=10;position=0.17;" parent="Nf0Q_2E6Zr9-tCof2FJ3-28" vertex="1">
          <mxGeometry x="530" y="30" width="130" height="40" as="geometry" />
        </mxCell>
        <mxCell id="AJawywp7CrKpe5rzHfXs-12" value="Mũi tên chạm vào Thiên thạch =&amp;gt; Thiên thạch nổ" style="shape=callout;whiteSpace=wrap;html=1;perimeter=calloutPerimeter;position2=0.15;base=22;size=12;position=0.25;" parent="Nf0Q_2E6Zr9-tCof2FJ3-28" vertex="1">
          <mxGeometry x="530" y="220" width="130" height="60" as="geometry" />
        </mxCell>
      </root>
    </mxGraphModel>
  </diagram>
</mxfile>
